<svg width="238" height="89" viewBox="0 0 238 89" fill="none" xmlns="http://www.w3.org/2000/svg">
<path d="M4.88 59.68H1.12V56.6H4.88V54.4C4.88 53.12 5.17333 52 5.76 51.04C6.34667 50.08 7.13333 49.3467 8.12 48.84C9.10667 48.3067 10.2 48.04 11.4 48.04C12.5467 48.04 13.5467 48.2 14.4 48.52V51.84C13.92 51.6533 13.4667 51.5067 13.04 51.4C12.6133 51.2667 12.1067 51.2 11.52 51.2C10.64 51.2 9.88 51.52 9.24 52.16C8.6 52.7733 8.28 53.64 8.28 54.76V56.6H13.52V59.68H8.28V77H4.88V59.68ZM17.6763 56.6H20.9163V59.88H21.0763C21.4763 58.76 22.2496 57.84 23.3963 57.12C24.5429 56.3733 25.7429 56 26.9963 56C27.9296 56 28.7296 56.1333 29.3963 56.4V60.08C28.5429 59.6533 27.5829 59.44 26.5163 59.44C25.5296 59.44 24.6229 59.72 23.7963 60.28C22.9696 60.84 22.3029 61.6 21.7963 62.56C21.3163 63.4933 21.0763 64.5067 21.0763 65.6V77H17.6763V56.6ZM40.0763 77.64C37.6229 77.64 35.7429 76.92 34.4363 75.48C33.1563 74.04 32.5163 72.0267 32.5163 69.44V56.6H35.9163V68.92C35.9163 70.8667 36.3563 72.2933 37.2363 73.2C38.1163 74.1067 39.3029 74.56 40.7963 74.56C41.9429 74.56 42.9563 74.2533 43.8363 73.64C44.7429 73.0267 45.4363 72.2267 45.9163 71.24C46.4229 70.2533 46.6763 69.2133 46.6763 68.12V56.6H50.0763V77H46.8363V74.04H46.6763C46.1163 75.0533 45.2229 75.9067 43.9963 76.6C42.7696 77.2933 41.4629 77.64 40.0763 77.64ZM63.1334 77.32C62.3068 77.32 61.5334 77.1867 60.8134 76.92C60.1201 76.6533 59.5334 76.2933 59.0534 75.84C58.5201 75.3333 58.1201 74.7467 57.8534 74.08C57.5868 73.4133 57.4534 72.6 57.4534 71.64V59.68H53.8934V56.6H57.4534V50.84H60.8534V56.6H65.8134V59.68H60.8534V70.8C60.8534 71.92 61.0668 72.7467 61.4934 73.28C62.0001 73.8667 62.7334 74.16 63.6934 74.16C64.4668 74.16 65.2134 73.9333 65.9334 73.48V76.8C65.5334 76.9867 65.1201 77.12 64.6934 77.2C64.2934 77.28 63.7734 77.32 63.1334 77.32ZM78.4434 77.64C76.4434 77.64 74.6434 77.16 73.0434 76.2C71.4434 75.24 70.1901 73.9333 69.2834 72.28C68.4034 70.6267 67.9634 68.8 67.9634 66.8C67.9634 64.8 68.4034 62.9733 69.2834 61.32C70.1901 59.6667 71.4434 58.36 73.0434 57.4C74.6434 56.44 76.4434 55.96 78.4434 55.96C80.4434 55.96 82.2434 56.44 83.8434 57.4C85.4434 58.36 86.6834 59.6667 87.5634 61.32C88.4701 62.9733 88.9234 64.8 88.9234 66.8C88.9234 68.8 88.4701 70.6267 87.5634 72.28C86.6834 73.9333 85.4434 75.24 83.8434 76.2C82.2434 77.16 80.4434 77.64 78.4434 77.64ZM78.4434 74.56C79.6968 74.56 80.8568 74.2533 81.9234 73.64C83.0168 73 83.8834 72.0933 84.5234 70.92C85.1901 69.7467 85.5234 68.3733 85.5234 66.8C85.5234 65.2267 85.1901 63.8533 84.5234 62.68C83.8834 61.5067 83.0168 60.6133 81.9234 60C80.8568 59.36 79.6968 59.04 78.4434 59.04C77.1901 59.04 76.0168 59.36 74.9234 60C73.8301 60.6133 72.9501 61.5067 72.2834 62.68C71.6434 63.8533 71.3234 65.2267 71.3234 66.8C71.3234 68.3733 71.6434 69.7467 72.2834 70.92C72.9501 72.0933 73.8301 73 74.9234 73.64C76.0168 74.2533 77.1901 74.56 78.4434 74.56ZM95.1116 77.24C94.3916 77.24 93.7782 77 93.2716 76.52C92.7916 76.0133 92.5516 75.4 92.5516 74.68C92.5516 73.9867 92.7916 73.4 93.2716 72.92C93.7782 72.4133 94.3916 72.16 95.1116 72.16C95.8049 72.16 96.3916 72.4133 96.8716 72.92C97.3782 73.4 97.6316 73.9867 97.6316 74.68C97.6316 75.4 97.3782 76.0133 96.8716 76.52C96.3916 77 95.8049 77.24 95.1116 77.24ZM111.043 77.64C109.229 77.64 107.576 77.1733 106.083 76.24C104.616 75.3067 103.456 74.0267 102.603 72.4C101.749 70.7467 101.323 68.88 101.323 66.8C101.323 64.7467 101.749 62.8933 102.603 61.24C103.456 59.5867 104.616 58.2933 106.083 57.36C107.576 56.4267 109.229 55.96 111.043 55.96C112.616 55.96 114.016 56.32 115.243 57.04C116.469 57.7333 117.403 58.6 118.043 59.64H118.203L118.043 56.8V48.36H121.443V77H118.203V74H118.043C117.403 75.0133 116.469 75.88 115.243 76.6C114.016 77.2933 112.616 77.64 111.043 77.64ZM111.443 74.56C112.643 74.56 113.749 74.24 114.763 73.6C115.803 72.96 116.629 72.0533 117.243 70.88C117.883 69.7067 118.203 68.3467 118.203 66.8C118.203 65.2533 117.883 63.8933 117.243 62.72C116.629 61.5467 115.803 60.64 114.763 60C113.749 59.36 112.643 59.04 111.443 59.04C110.269 59.04 109.163 59.36 108.123 60C107.083 60.64 106.243 61.56 105.603 62.76C104.989 63.9333 104.683 65.28 104.683 66.8C104.683 68.32 104.989 69.68 105.603 70.88C106.243 72.0533 107.083 72.96 108.123 73.6C109.163 74.24 110.269 74.56 111.443 74.56ZM135.67 77.64C133.67 77.64 131.87 77.16 130.27 76.2C128.67 75.24 127.417 73.9333 126.51 72.28C125.63 70.6267 125.19 68.8 125.19 66.8C125.19 64.8 125.63 62.9733 126.51 61.32C127.417 59.6667 128.67 58.36 130.27 57.4C131.87 56.44 133.67 55.96 135.67 55.96C137.67 55.96 139.47 56.44 141.07 57.4C142.67 58.36 143.91 59.6667 144.79 61.32C145.697 62.9733 146.15 64.8 146.15 66.8C146.15 68.8 145.697 70.6267 144.79 72.28C143.91 73.9333 142.67 75.24 141.07 76.2C139.47 77.16 137.67 77.64 135.67 77.64ZM135.67 74.56C136.923 74.56 138.083 74.2533 139.15 73.64C140.243 73 141.11 72.0933 141.75 70.92C142.417 69.7467 142.75 68.3733 142.75 66.8C142.75 65.2267 142.417 63.8533 141.75 62.68C141.11 61.5067 140.243 60.6133 139.15 60C138.083 59.36 136.923 59.04 135.67 59.04C134.417 59.04 133.243 59.36 132.15 60C131.057 60.6133 130.177 61.5067 129.51 62.68C128.87 63.8533 128.55 65.2267 128.55 66.8C128.55 68.3733 128.87 69.7467 129.51 70.92C130.177 72.0933 131.057 73 132.15 73.64C133.243 74.2533 134.417 74.56 135.67 74.56ZM152.338 77.24C151.618 77.24 151.005 77 150.498 76.52C150.018 76.0133 149.778 75.4 149.778 74.68C149.778 73.9867 150.018 73.4 150.498 72.92C151.005 72.4133 151.618 72.16 152.338 72.16C153.031 72.16 153.618 72.4133 154.098 72.92C154.605 73.4 154.858 73.9867 154.858 74.68C154.858 75.4 154.605 76.0133 154.098 76.52C153.618 77 153.031 77.24 152.338 77.24ZM169.029 77.64C167.029 77.64 165.229 77.16 163.629 76.2C162.029 75.24 160.776 73.9333 159.869 72.28C158.989 70.6267 158.549 68.8 158.549 66.8C158.549 64.8 158.989 62.9733 159.869 61.32C160.776 59.6667 162.029 58.36 163.629 57.4C165.229 56.44 167.029 55.96 169.029 55.96C171.029 55.96 172.829 56.44 174.429 57.4C176.029 58.36 177.269 59.6667 178.149 61.32C179.056 62.9733 179.509 64.8 179.509 66.8C179.509 68.8 179.056 70.6267 178.149 72.28C177.269 73.9333 176.029 75.24 174.429 76.2C172.829 77.16 171.029 77.64 169.029 77.64ZM169.029 74.56C170.283 74.56 171.443 74.2533 172.509 73.64C173.603 73 174.469 72.0933 175.109 70.92C175.776 69.7467 176.109 68.3733 176.109 66.8C176.109 65.2267 175.776 63.8533 175.109 62.68C174.469 61.5067 173.603 60.6133 172.509 60C171.443 59.36 170.283 59.04 169.029 59.04C167.776 59.04 166.603 59.36 165.509 60C164.416 60.6133 163.536 61.5067 162.869 62.68C162.229 63.8533 161.909 65.2267 161.909 66.8C161.909 68.3733 162.229 69.7467 162.869 70.92C163.536 72.0933 164.416 73 165.509 73.64C166.603 74.2533 167.776 74.56 169.029 74.56ZM192.098 77.64C190.284 77.64 188.631 77.1733 187.138 76.24C185.671 75.3067 184.511 74.0267 183.658 72.4C182.804 70.7467 182.378 68.88 182.378 66.8C182.378 64.7467 182.804 62.8933 183.658 61.24C184.511 59.5867 185.671 58.2933 187.138 57.36C188.631 56.4267 190.284 55.96 192.098 55.96C193.671 55.96 195.071 56.32 196.298 57.04C197.524 57.7333 198.458 58.6 199.098 59.64H199.258L199.098 56.8V48.36H202.498V77H199.258V74H199.098C198.458 75.0133 197.524 75.88 196.298 76.6C195.071 77.2933 193.671 77.64 192.098 77.64ZM192.498 74.56C193.698 74.56 194.804 74.24 195.818 73.6C196.858 72.96 197.684 72.0533 198.298 70.88C198.938 69.7067 199.258 68.3467 199.258 66.8C199.258 65.2533 198.938 63.8933 198.298 62.72C197.684 61.5467 196.858 60.64 195.818 60C194.804 59.36 193.698 59.04 192.498 59.04C191.324 59.04 190.218 59.36 189.178 60C188.138 60.64 187.298 61.56 186.658 62.76C186.044 63.9333 185.738 65.28 185.738 66.8C185.738 68.32 186.044 69.68 186.658 70.88C187.298 72.0533 188.138 72.96 189.178 73.6C190.218 74.24 191.324 74.56 192.498 74.56ZM209.52 52.84C208.853 52.84 208.28 52.6 207.8 52.12C207.32 51.64 207.08 51.0667 207.08 50.4C207.08 49.7333 207.32 49.1733 207.8 48.72C208.28 48.24 208.853 48 209.52 48C210.187 48 210.76 48.24 211.24 48.72C211.72 49.1733 211.96 49.7333 211.96 50.4C211.96 51.0667 211.72 51.64 211.24 52.12C210.787 52.6 210.213 52.84 209.52 52.84ZM207.84 56.6H211.2V77H207.84V56.6ZM225.748 77.64C223.748 77.64 221.948 77.16 220.348 76.2C218.748 75.24 217.495 73.9333 216.588 72.28C215.708 70.6267 215.268 68.8 215.268 66.8C215.268 64.8 215.708 62.9733 216.588 61.32C217.495 59.6667 218.748 58.36 220.348 57.4C221.948 56.44 223.748 55.96 225.748 55.96C227.748 55.96 229.548 56.44 231.148 57.4C232.748 58.36 233.988 59.6667 234.868 61.32C235.775 62.9733 236.228 64.8 236.228 66.8C236.228 68.8 235.775 70.6267 234.868 72.28C233.988 73.9333 232.748 75.24 231.148 76.2C229.548 77.16 227.748 77.64 225.748 77.64ZM225.748 74.56C227.001 74.56 228.161 74.2533 229.228 73.64C230.321 73 231.188 72.0933 231.828 70.92C232.495 69.7467 232.828 68.3733 232.828 66.8C232.828 65.2267 232.495 63.8533 231.828 62.68C231.188 61.5067 230.321 60.6133 229.228 60C228.161 59.36 227.001 59.04 225.748 59.04C224.495 59.04 223.321 59.36 222.228 60C221.135 60.6133 220.255 61.5067 219.588 62.68C218.948 63.8533 218.628 65.2267 218.628 66.8C218.628 68.3733 218.948 69.7467 219.588 70.92C220.255 72.0933 221.135 73 222.228 73.64C223.321 74.2533 224.495 74.56 225.748 74.56Z" fill="white"/>
<path d="M127.685 25.6319C127.084 27.5637 125.492 29.1426 122.955 30.3259C122.108 30.7598 120.888 31 119.523 31C116.367 31 113.474 29.7912 111.785 27.766C110.103 25.75 109.606 23.0358 110.309 19.6987C111.277 15.9281 114.279 12.6405 117.181 9.46037C117.181 9.46037 123.265 4.29371 124.004 0C124.339 1.79059 124.906 4.84003 121.432 8.96047C115.74 15.3181 116.67 18.766 117.09 19.6716C117.478 20.5067 118.202 21.0068 119.027 21.0076H119.027C119.217 21.0076 119.411 20.9809 119.603 20.9289C121.613 20.1437 121.326 18.2648 120.993 16.0896C120.705 14.2096 120.38 12.0788 121.565 10.3352L121.659 10.1956V10.3634C121.656 12.8835 122.682 13.871 123.87 15.0144C124.52 15.6415 125.117 16.3353 125.761 17.248C127.964 20.3721 128.396 23.3497 127.685 25.6319Z" fill="white"/>
</svg>
